<?xml version="1.0" standalone="no"?>
<svg viewBox="0 0 200 200" xmlns="http://www.w3.org/2000/svg">
  <path fill="#FDBE15" d="M27.2,-47.4C35.3,-42.5,42,-35.3,53.8,-27C65.6,-18.7,82.6,-9.4,88.8,3.6C95,16.5,90.4,33,79.8,43.5C69.3,53.9,52.7,58.2,38.4,65.9C24.1,73.6,12,84.7,-1.5,87.2C-15,89.8,-30,83.8,-37.6,72.3C-45.3,60.7,-45.7,43.7,-47.7,30.7C-49.8,17.7,-53.6,8.9,-54.3,-0.5C-55.1,-9.8,-52.9,-19.5,-48.1,-27.7C-43.3,-35.9,-35.8,-42.5,-27.3,-47.2C-18.9,-52,-9.4,-54.9,0.1,-55C9.6,-55.1,19.1,-52.3,27.2,-47.4Z" transform="translate(100 100)" />
</svg>
